HIERARCHY
ROOT Hips
{
    OFFSET 0.000000 0.000000 0.000000
    CHANNELS 6 Xposition Yposition Zposition Zrotation Xrotation Yrotation
    JOINT Spine
    {
        OFFSET -0.000000 14.517291 0.000000
        CHANNELS 3 Zrotation Xrotation Yrotation
        JOINT Spine1
        {
            OFFSET -0.000000 37.558300 0.000000
            CHANNELS 3 Zrotation Xrotation Yrotation
            JOINT Neck
            {
                OFFSET -0.000000 37.404057 3.400369
                CHANNELS 3 Zrotation Xrotation Yrotation
                JOINT Head
                {
                    OFFSET -0.000000 24.785618 -3.540803
                    CHANNELS 3 Zrotation Xrotation Yrotation
                    End Site
                    {
                        OFFSET -0.000000 35.408028 0.000000
                    }
                }
            }
            JOINT LeftShoulder
            {
                OFFSET 6.992933 33.973492 -0.192664
                CHANNELS 3 Zrotation Xrotation Yrotation
                JOINT LeftArm
                {
                    OFFSET 21.527611 0.000000 0.000000
                    CHANNELS 3 Zrotation Xrotation Yrotation
                    JOINT LeftForeArm
                    {
                        OFFSET 56.353916 0.000000 0.000000
                        CHANNELS 3 Zrotation Xrotation Yrotation
                        JOINT LeftHand
                        {
                            OFFSET 47.774071 0.000000 0.000000
                            CHANNELS 3 Zrotation Xrotation Yrotation
                            End Site
                            {
                                OFFSET 26.556021 0.000000 0.000000
                            }
                        }
                    }
                }
            }
            JOINT RightShoulder
            {
                OFFSET -7.065357 33.973492 -0.192664
                CHANNELS 3 Zrotation Xrotation Yrotation
                JOINT RightArm
                {
                    OFFSET -21.527611 0.000000 0.000000
                    CHANNELS 3 Zrotation Xrotation Yrotation
                    JOINT RightForeArm
                    {
                        OFFSET -56.353916 0.000000 0.000000
                        CHANNELS 3 Zrotation Xrotation Yrotation
                        JOINT RightHand
                        {
                            OFFSET -47.774071 0.000000 0.000000
                            CHANNELS 3 Zrotation Xrotation Yrotation
                            End Site
                            {
                                OFFSET -26.556021 0.000000 0.000000
                            }
                        }
                    }
                }
            }
        }
    }
    JOINT LeftUpLeg
    {
        OFFSET 17.704014 0.000000 0.000000
        CHANNELS 3 Zrotation Xrotation Yrotation
        JOINT LeftLeg
        {
            OFFSET -0.000000 -81.181816 0.000000
            CHANNELS 3 Zrotation Xrotation Yrotation
            JOINT LeftFoot
            {
                OFFSET -0.000000 -62.821102 0.000000
                CHANNELS 3 Zrotation Xrotation Yrotation
                JOINT LeftToeBase
                {
                    OFFSET -0.000000 -11.507608 26.556021
                    CHANNELS 3 Zrotation Xrotation Yrotation
                    End Site
                    {
                        OFFSET -0.000000 0.000000 7.081605
                    }
                }
            }
        }
    }
    JOINT RightUpLeg
    {
        OFFSET -17.704014 0.000000 0.000000
        CHANNELS 3 Zrotation Xrotation Yrotation
        JOINT RightLeg
        {
            OFFSET -0.000000 -81.181816 0.000000
            CHANNELS 3 Zrotation Xrotation Yrotation
            JOINT RightFoot
            {
                OFFSET -0.000000 -62.821102 0.000000
                CHANNELS 3 Zrotation Xrotation Yrotation
                JOINT RightToeBase
                {
                    OFFSET -0.000000 -11.507608 26.556021
                    CHANNELS 3 Zrotation Xrotation Yrotation
                    End Site
                    {
                        OFFSET -0.000000 0.000000 7.081605
                    }
                }
            }
        }
    }
}
MOTION
Frames:    13
Frame Time:    0.008333
26.114822    156.361984    -36.084427    0.741688    -1.036960    -45.865768    2.368001    -1.770393    0.039769    -5.034130    5.581408    0.250375    24.746756    -1.312611    17.360441    -14.479036    8.240725    13.058928    13.457634    0.246786    -16.154625    -15.587091    -18.867744    -41.420853    4.661003    -34.764309    -34.922905    -25.893047    -24.827656    -41.505211    -11.335196    5.830070    -6.763517    17.964788    26.051687    2.911425    20.852016    16.954966    122.647705    2.340430    -21.985374    17.471233    17.492897    -18.314795    4.784539    -11.307654    17.505442    -3.385245    -8.525108    0.684398    38.309185    0.000000    0.000000    0.000000    -15.831429    1.045238    -5.719330    6.920611    27.526159    -2.166854    4.951047    -21.142721    -16.734156    0.000000    0.000000    0.000000    
26.116001    156.355331    -36.088932    0.742614    -1.041036    -45.853577    2.339402    -1.740631    0.048545    -4.994380    5.550817    0.254240    24.784435    -1.352838    17.371862    -14.540029    8.272796    13.055443    13.486616    0.229844    -16.156149    -15.621282    -18.879436    -41.482853    4.643907    -34.735928    -34.975445    -25.889521    -24.804428    -41.488407    -11.242118    5.816096    -6.773244    18.000956    26.052999    2.949766    20.762360    16.866892    122.705643    2.472341    -21.925709    17.368063    17.487080    -18.320549    4.804350    -11.299541    17.514856    -3.407144    -8.524824    0.681720    38.304543    0.000000    0.000000    0.000000    -15.837984    1.042371    -5.735105    6.928251    27.550112    -2.160465    4.949788    -21.166277    -16.740355    0.000000    0.000000    0.000000    
26.113472    156.347534    -36.095150    0.747519    -1.048109    -45.838078    2.299501    -1.736420    0.051926    -4.932231    5.546113    0.254309    24.773880    -1.354143    17.375223    -14.581333    8.255244    13.055357    13.492075    0.212947    -16.162766    -15.605764    -18.853294    -41.519054    4.666286    -34.743134    -34.990059    -25.922365    -24.787617    -41.512306    -11.201419    5.815569    -6.768735    18.034878    26.047138    3.033918    20.778337    16.899109    122.725426    2.378133    -21.956549    17.340525    17.483221    -18.322489    4.809160    -11.307993    17.511383    -3.417047    -8.515004    0.691850    38.293022    0.000000    0.000000    0.000000    -15.845797    1.038069    -5.733435    6.932129    27.577127    -2.142230    4.929914    -21.187469    -16.767740    0.000000    0.000000    0.000000    
26.114719    156.340408    -36.098022    0.758715    -1.054184    -45.813885    2.270988    -1.726181    0.051251    -4.892822    5.526110    0.252480    24.774132    -1.352286    17.389372    -14.619430    8.234412    13.065275    13.515059    0.196393    -16.163074    -15.598484    -18.830116    -41.553650    4.666336    -34.760338    -35.016502    -25.933947    -24.790697    -41.556152    -11.149281    5.810827    -6.769886    18.048651    26.021261    3.107246    20.808348    16.979897    122.726944    2.312085    -21.949615    17.264208    17.463701    -18.331926    4.816155    -11.297075    17.504290    -3.410091    -8.521832    0.698596    38.265991    0.000000    0.000000    0.000000    -15.858223    1.034505    -5.743673    6.938431    27.593412    -2.159339    4.932842    -21.203037    -16.761223    0.000000    0.000000    0.000000    
26.114571    156.336899    -36.103863    0.771443    -1.056828    -45.781628    2.238036    -1.720986    0.063599    -4.849658    5.506116    0.243604    24.794550    -1.356605    17.390882    -14.673757    8.236700    13.059001    13.547060    0.196710    -16.181658    -15.504689    -18.510450    -41.593311    5.097049    -35.055161    -34.888378    -26.105101    -24.924227    -41.607075    -11.095530    5.796994    -6.768103    18.074562    26.007582    3.137660    20.822033    17.043344    122.716843    2.379787    -21.896084    17.320013    17.451754    -18.346216    4.800182    -11.305791    17.492329    -3.411088    -8.519528    0.716564    38.257900    0.000000    0.000000    0.000000    -15.867290    1.025489    -5.745653    6.953024    27.619455    -2.145533    4.918476    -21.222700    -16.814898    0.000000    0.000000    0.000000    
26.112556    156.334061    -36.107159    0.784740    -1.053814    -45.743359    2.207754    -1.725636    0.060021    -4.799455    5.492101    0.239816    24.796936    -1.353165    17.404736    -14.712829    8.223811    13.069542    13.574870    0.184533    -16.193336    -15.559170    -18.776197    -41.602856    4.704614    -34.800560    -35.076748    -25.945707    -24.812805    -41.575207    -11.053457    5.789407    -6.776155    18.093966    26.000580    3.208519    20.865511    17.143133    122.684914    2.252059    -21.875868    17.379683    17.438137    -18.367689    4.802006    -11.301359    17.486868    -3.422363    -8.525449    0.732002    38.238064    0.000000    0.000000    0.000000    -15.869994    1.020232    -5.732439    6.971126    27.631254    -2.193202    4.918753    -21.233412    -16.812078    0.000000    0.000000    0.000000    
26.107502    156.329437    -36.112946    0.794360    -1.046525    -45.696102    2.179812    -1.730371    0.065414    -4.747031    5.479303    0.238706    24.808357    -1.349329    17.402166    -14.757712    8.206808    13.060456    13.605667    0.168168    -16.233297    -15.542905    -18.763418    -41.609993    4.729772    -34.784122    -35.101143    -25.950739    -24.785954    -41.569603    -10.999520    5.768756    -6.797629    18.098272    26.017046    3.225196    20.831806    17.154232    122.683304    2.316862    -21.787043    17.424536    17.431026    -18.395628    4.815402    -11.296574    17.491003    -3.442400    -8.523106    0.745349    38.211758    0.000000    0.000000    0.000000    -15.863841    1.015835    -5.737041    6.981431    27.649889    -2.219137    4.918852    -21.250126    -16.838972    0.000000    0.000000    0.000000    
26.100052    156.323593    -36.119209    0.804444    -1.038189    -45.645405    2.151131    -1.729440    0.045084    -4.686345    5.449966    0.238978    24.812601    -1.354612    17.415188    -14.796287    8.232319    13.072898    13.616769    0.150657    -16.253916    -15.453304    -18.479012    -41.611259    5.103923    -35.036366    -34.996086    -26.129517    -24.893057    -41.584900    -10.973963    5.778133    -6.803163    18.106121    25.977516    3.243841    20.766665    17.147900    122.668663    2.494935    -21.626945    17.400959    17.424883    -18.426161    4.815155    -11.294837    17.493290    -3.457847    -8.515962    0.759813    38.191082    0.000000    0.000000    0.000000    -15.854956    1.019064    -5.732616    6.997057    27.654371    -2.251022    4.901086    -21.261692    -16.866821    0.000000    0.000000    0.000000    
26.093653    156.317886    -36.120640    0.813369    -1.029115    -45.583626    2.128702    -1.732563    0.034790    -4.630881    5.430561    0.230740    24.824177    -1.378811    17.432510    -14.826856    8.275772    13.087277    13.633198    0.134531    -16.271011    -15.414722    -18.431871    -41.610661    5.150129    -35.046844    -35.015976    -26.147764    -24.885551    -41.577660    -10.939958    5.786221    -6.826469    18.095127    25.960350    3.280696    20.760752    17.186632    122.632774    2.474371    -21.549051    17.460489    17.418755    -18.462460    4.800517    -11.304265    17.498806    -3.457895    -8.520076    0.764911    38.170589    0.000000    0.000000    0.000000    -15.846736    1.024655    -5.756865    7.000584    27.668295    -2.245196    4.904951    -21.275192    -16.908312    0.000000    0.000000    0.000000    
26.086330    156.314209    -36.121296    0.821632    -1.012433    -45.520164    2.116024    -1.737524    0.034552    -4.583486    5.405060    0.210170    24.851786    -1.387848    17.447308    -14.874453    8.310805    13.097477    13.665006    0.128728    -16.277458    -15.398555    -18.428457    -41.623234    5.335858    -34.873428    -34.860783    -26.425753    -24.499685    -41.763023    -10.899294    5.802902    -6.843730    18.092325    25.957136    3.302305    20.713423    17.174349    122.600105    2.470231    -21.440102    17.478201    17.415596    -18.507706    4.800224    -11.303322    17.515123    -3.466317    -8.516117    0.772074    38.141106    0.000000    0.000000    0.000000    -15.831853    1.028780    -5.788479    7.004894    27.673906    -2.286138    4.917950    -21.279915    -16.900780    0.000000    0.000000    0.000000    
26.076210    156.310562    -36.120564    0.829149    -0.995816    -45.459999    2.109701    -1.747370    0.020503    -4.540849    5.383101    0.199365    24.838068    -1.425532    17.460344    -14.851699    8.383828    13.116166    13.679846    0.119393    -16.282888    -15.429363    -18.706274    -41.599686    4.895974    -34.592239    -35.063526    -26.258537    -24.367109    -41.763302    -10.869442    5.818483    -6.849210    18.096268    25.947926    3.312243    20.694183    17.182184    122.568153    2.428507    -21.374350    17.454611    17.418682    -18.548462    4.796279    -11.311736    17.531412    -3.484165    -8.517282    0.768087    38.121941    0.000000    0.000000    0.000000    -15.815605    1.035279    -5.808434    7.012463    27.675249    -2.303528    4.917508    -21.292118    -16.927048    0.000000    0.000000    0.000000    
26.067987    156.302994    -36.116253    0.837147    -0.984352    -45.396206    2.095226    -1.755358    0.004637    -4.486300    5.363060    0.198995    24.857979    -1.425557    17.469845    -14.900408    8.408565    13.122733    13.681257    0.104835    -16.301107    -15.406420    -18.719757    -41.604481    4.852623    -34.571095    -35.094982    -26.224585    -24.364639    -41.774803    -10.844998    5.845233    -6.876360    18.096287    25.942142    3.330627    20.699636    17.198528    122.541023    2.351571    -21.358646    17.417402    17.411407    -18.588385    4.782997    -11.313581    17.547171    -3.506331    -8.515655    0.769052    38.107716    0.000000    0.000000    0.000000    -15.806435    1.045500    -5.839339    7.016205    27.686670    -2.292384    4.903578    -21.312559    -16.971436    0.000000    0.000000    0.000000    
26.057404    156.299316    -36.111355    0.847045    -0.972025    -45.331165    2.065561    -1.773516    -0.009639    -4.449416    5.339533    0.192229    24.934408    -1.415195    17.477318    -14.949929    8.455180    13.122761    13.753499    0.118499    -16.321245    -15.423854    -18.746883    -41.627197    4.851954    -34.558098    -35.105366    -26.205589    -24.355310    -41.781734    -10.764546    5.841224    -6.851521    18.081112    25.954308    3.276369    20.731184    17.222996    122.496216    2.272236    -21.370935    17.438637    17.402214    -18.628073    4.754992    -11.319075    17.554384    -3.488479    -8.502974    0.785098    38.065128    0.000000    0.000000    0.000000    -15.794917    1.056250    -5.887602    7.007563    27.690866    -2.307689    4.917078    -21.323879    -16.961662    0.000000    0.000000    0.000000    
